General
Complete name                    : Sleuth.2007.avi
Format                           : AVI
File size                        : 709 MiB
Duration                         : 1h 25mn
Overall bit rate                 : 1 165 Kbps

Video

Format                           : MPEG-4 Visual
Codec ID/Hint                    : XviD
Duration                         : 1h 25mn
Bit rate                         : 1 027 Kbps
Width                            : 720 pixels
Height                           : 420 pixels
Display aspect ratio             : 16:9
Stream size                      : 625 MiB (88%)
Writing library                  : XviD 1.2.1 (UTC 2008-12-04)

Audio

Format                           : MPEG Audio
Codec ID/Hint                    : MP3
Duration                         : 1h 25mn
Bit rate                         : 128 Kbps
Channel(s)                       : 2 channels
Sampling rate                    : 48.0 KHz
Stream size                      : 77.9 MiB (11%)
Writing library                  : LAME3.97 

 
http://www.imdb.com/title/tt0857265/